<svg xmlns="http://www.w3.org/2000/svg" xmlns:xlink="http://www.w3.org/1999/xlink" viewBox="0 0 159.895 43.47"><defs><style>.a{fill:#61b22f;}.b{fill:url(#a);}.c{fill:url(#b);}.d{fill:url(#c);}.e{fill:url(#d);}.f{fill:url(#e);}</style><linearGradient id="a" x1="-0.023" y1="0.5" x2="1.018" y2="0.5" gradientUnits="objectBoundingBox"><stop offset="0" stop-color="#42ab34"/><stop offset="0.057" stop-color="#47ac34"/><stop offset="0.588" stop-color="#61b22f"/><stop offset="1" stop-color="#69b42e"/></linearGradient><linearGradient id="b" x1="0" y1="0.5" x2="1" y2="0.5" xlink:href="#a"/><linearGradient id="c" x1="0" y1="0.5" x2="1" y2="0.5" xlink:href="#a"/><linearGradient id="d" x1="-2.001" y1="0.5" x2="1.166" y2="0.5" xlink:href="#a"/><linearGradient id="e" x1="0" y1="0.5" x2="1" y2="0.5" xlink:href="#a"/></defs><path class="a" d="M1.33,0H11.438V-2.983H5.092V-13.3H1.33ZM14.554-11.438a2,2,0,0,0,2.2-1.976,1.955,1.955,0,0,0-2.2-1.862,2,2,0,0,0-2.2,1.919A2,2,0,0,0,14.554-11.438ZM12.749,0h3.61V-10.3h-3.61ZM32.11-10.469a4.459,4.459,0,0,0-3.572,1.615,3.77,3.77,0,0,0-3.325-1.615,4.1,4.1,0,0,0-3.078,1.254V-10.3H18.7V0h3.61V-5.111c0-1.6.76-2.3,1.824-2.3.969,0,1.558.627,1.558,2.109V0H29.3V-5.111c0-1.6.76-2.3,1.805-2.3.95,0,1.558.627,1.558,2.109V0h3.61V-5.89C36.271-9.082,34.5-10.469,32.11-10.469ZM49.229-5.13a5.159,5.159,0,0,0-5.51-5.339c-3.249,0-5.662,2.2-5.662,5.3C38.057-2.09,40.432.171,44.1.171A5.574,5.574,0,0,0,48.488-1.5l-1.9-1.976a3.3,3.3,0,0,1-2.375.893,2.377,2.377,0,0,1-2.527-1.653h7.486C49.191-4.522,49.229-4.864,49.229-5.13ZM43.738-7.9a2.035,2.035,0,0,1,2.109,1.767H41.629A2.048,2.048,0,0,1,43.738-7.9ZM55.746.266c3.952,0,5.89-1.976,5.89-4.294,0-4.9-7.543-3.382-7.543-5.415,0-.665.57-1.2,2.147-1.2a7.859,7.859,0,0,1,3.686,1.026l1.159-2.793a9.96,9.96,0,0,0-4.826-1.159c-3.952,0-5.89,1.938-5.89,4.313,0,4.94,7.562,3.4,7.562,5.51,0,.646-.608,1.083-2.166,1.083a8.387,8.387,0,0,1-4.389-1.311L50.141-1.2A10.475,10.475,0,0,0,55.746.266ZM70.414-10.3v4.959c0,1.729-.874,2.432-1.938,2.432-1.083,0-1.71-.627-1.71-2.223V-10.3h-3.61v5.757c0,3.268,1.843,4.712,4.37,4.712A4.058,4.058,0,0,0,70.585-1.1V0h3.439V-10.3Zm9.367,1.235V-10.3H76.342V0h3.61V-4.731a2.247,2.247,0,0,1,2.47-2.546,6.574,6.574,0,0,1,.817.057v-3.249A4.215,4.215,0,0,0,79.781-9.063ZM92.454-10.3l-2.6,6.289L87.381-10.3H83.676L87.913,0h3.724l4.256-10.3ZM107.065-5.13a5.159,5.159,0,0,0-5.51-5.339c-3.249,0-5.662,2.2-5.662,5.3,0,3.078,2.375,5.339,6.042,5.339A5.574,5.574,0,0,0,106.324-1.5l-1.9-1.976a3.3,3.3,0,0,1-2.375.893,2.377,2.377,0,0,1-2.527-1.653h7.486C107.027-4.522,107.065-4.864,107.065-5.13ZM101.574-7.9a2.035,2.035,0,0,1,2.109,1.767H99.465A2.048,2.048,0,0,1,101.574-7.9ZM115.957-10.3l-2.546,6.289L110.884-10.3h-3.705L111.587.133a1.393,1.393,0,0,1-1.406.874,2.453,2.453,0,0,1-1.6-.608l-1.254,2.527a5.022,5.022,0,0,0,2.983.931c2.033,0,3.553-.779,4.636-3.439L119.4-10.3Z" transform="translate(40.499 36.396)"/><path class="b" d="M13.73,4.182A12.121,12.121,0,0,1,17.6,4.9,21.992,21.992,0,0,1,21.179,6.52a30.9,30.9,0,0,1,3.28,2.117c.522.388,1.033.783,1.535,1.2.253.206.5.419.744.637.123.107.245.218.368.328l.182.174.2.186-3.636.008.324-.38.3-.336c.2-.222.4-.435.609-.649q.617-.629,1.258-1.218c.427-.392.87-.771,1.313-1.139.225-.182.451-.364.676-.542l.34-.269.348-.257c.926-.692,1.887-1.329,2.876-1.927s2.01-1.131,3.05-1.626A31.172,31.172,0,0,1,41.466.586a26.76,26.76,0,0,1,3.4-.518A19.7,19.7,0,0,1,48.318.06c-.483.332-.973.613-1.452.914-.237.15-.479.3-.72.435-.119.071-.237.142-.356.218l-.356.218c-.946.57-1.867,1.147-2.785,1.709-1.828,1.139-3.6,2.283-5.337,3.462S33.882,9.4,32.225,10.65c-.411.316-.827.625-1.234.949s-.811.641-1.215.961-.8.653-1.187.981c-.194.166-.388.328-.578.491l-.522.459-2.2,1.935L23.85,14.5c-.028-.04-.079-.1-.123-.15l-.138-.166-.281-.336-.574-.676q-.582-.676-1.175-1.349c-.791-.894-1.594-1.784-2.421-2.658s-1.666-1.737-2.552-2.571A28.914,28.914,0,0,0,13.73,4.182Z" transform="translate(-8.298 0.012)"/><g transform="translate(0 11.509)"><path class="c" d="M20.07,83.38a10.653,10.653,0,0,1-9.538-5.93L4.19,80.18A17.538,17.538,0,0,0,26.372,89.1l-2.726-6.342A10.614,10.614,0,0,1,20.07,83.38Z" transform="translate(-2.532 -58.314)"/><path class="d" d="M6.9,43.5a10.65,10.65,0,0,1,5.135-9.1L7.572,29.08a17.536,17.536,0,0,0-6.5,20.457l6.353-2.73A10.618,10.618,0,0,1,6.9,43.5Z" transform="translate(0 -29.08)"/><path class="e" d="M61.974,30.21l-5.954,4.4a10.741,10.741,0,0,1,4.728,4.51l6.35-2.73A17.66,17.66,0,0,0,61.974,30.21Z" transform="translate(-33.858 -29.763)"/><path class="f" d="M69.459,55.749a17.422,17.422,0,0,0-1.215-6.409l-6.338,2.726A10.641,10.641,0,0,1,56.89,65.156L59.62,71.5A17.558,17.558,0,0,0,69.459,55.749Z" transform="translate(-34.384 -41.325)"/></g></svg>